<mxfile host="app.diagrams.net" modified="2021-01-30T05:38:41.302Z" agent="5.0 (Macintosh; Intel Mac OS X 11_1_0) AppleWebKit/537.36 (KHTML, like Gecko) Chrome/87.0.4280.141 Safari/537.36" etag="GvG9jDtiE6gQ9d4kakNy" version="14.2.7" type="github">
  <diagram id="C5RBs43oDa-KdzZeNtuy" name="Page-1">
    <mxGraphModel dx="1613" dy="489" grid="1" gridSize="10" guides="1" tooltips="1" connect="1" arrows="1" fold="1" page="1" pageScale="1" pageWidth="827" pageHeight="1169" math="0" shadow="0">
      <root>
        <mxCell id="WIyWlLk6GJQsqaUBKTNV-0" />
        <mxCell id="WIyWlLk6GJQsqaUBKTNV-1" parent="WIyWlLk6GJQsqaUBKTNV-0" />
        <mxCell id="i8caUm4KZTFX52mqfpcK-3" style="edgeStyle=orthogonalEdgeStyle;rounded=0;orthogonalLoop=1;jettySize=auto;html=1;dashed=1;endArrow=none;endFill=0;" edge="1" parent="WIyWlLk6GJQsqaUBKTNV-1" source="i8caUm4KZTFX52mqfpcK-5">
          <mxGeometry relative="1" as="geometry">
            <mxPoint x="360" y="145" as="targetPoint" />
          </mxGeometry>
        </mxCell>
        <mxCell id="i8caUm4KZTFX52mqfpcK-4" style="edgeStyle=orthogonalEdgeStyle;rounded=0;orthogonalLoop=1;jettySize=auto;html=1;entryX=0.5;entryY=0;entryDx=0;entryDy=0;endArrow=classic;endFill=1;fontFamily=Times New Roman;fontSize=14;" edge="1" parent="WIyWlLk6GJQsqaUBKTNV-1" source="i8caUm4KZTFX52mqfpcK-5">
          <mxGeometry relative="1" as="geometry">
            <mxPoint x="240" y="200" as="targetPoint" />
          </mxGeometry>
        </mxCell>
        <mxCell id="i8caUm4KZTFX52mqfpcK-5" value="Начало" style="html=1;dashed=0;whitespace=wrap;shape=mxgraph.dfd.start;fontSize=14;fontFamily=Times New Roman;" vertex="1" parent="WIyWlLk6GJQsqaUBKTNV-1">
          <mxGeometry x="180" y="110" width="120" height="70" as="geometry" />
        </mxCell>
        <mxCell id="i8caUm4KZTFX52mqfpcK-6" value="" style="strokeWidth=1;html=1;shape=mxgraph.flowchart.annotation_1;align=left;pointerEvents=1;" vertex="1" parent="WIyWlLk6GJQsqaUBKTNV-1">
          <mxGeometry x="364" y="100" width="26" height="110" as="geometry" />
        </mxCell>
        <mxCell id="i8caUm4KZTFX52mqfpcK-7" value="&lt;b style=&quot;font-size: 14px&quot;&gt;Входные данные:&lt;br style=&quot;font-size: 14px&quot;&gt;&lt;/b&gt;s - стартовый узел&lt;br style=&quot;font-size: 14px&quot;&gt;g - конечный узел&amp;nbsp;&lt;br style=&quot;font-size: 14px&quot;&gt;M -&amp;nbsp; матрица пространства поиска&amp;nbsp;&lt;br style=&quot;font-size: 14px&quot;&gt;&lt;br style=&quot;font-size: 14px&quot;&gt;&lt;b style=&quot;font-size: 14px&quot;&gt;Выходные данные:&lt;br style=&quot;font-size: 14px&quot;&gt;&lt;/b&gt;P - список узлов состовляюших путь" style="text;html=1;strokeColor=none;fillColor=none;align=left;verticalAlign=middle;whiteSpace=wrap;rounded=0;fontSize=14;fontFamily=Times New Roman;" vertex="1" parent="WIyWlLk6GJQsqaUBKTNV-1">
          <mxGeometry x="390" y="100" width="230" height="105" as="geometry" />
        </mxCell>
        <mxCell id="i8caUm4KZTFX52mqfpcK-12" style="edgeStyle=orthogonalEdgeStyle;rounded=0;orthogonalLoop=1;jettySize=auto;html=1;entryX=0.5;entryY=0;entryDx=0;entryDy=0;" edge="1" parent="WIyWlLk6GJQsqaUBKTNV-1" source="i8caUm4KZTFX52mqfpcK-8" target="i8caUm4KZTFX52mqfpcK-11">
          <mxGeometry relative="1" as="geometry" />
        </mxCell>
        <mxCell id="i8caUm4KZTFX52mqfpcK-8" value="Для всех вершин m&lt;sub&gt;i &lt;/sub&gt;из M &lt;br&gt;m&lt;sub&gt;i&lt;/sub&gt;.g :=&amp;nbsp;&lt;span style=&quot;color: rgb(32 , 33 , 34) ; font-family: &amp;quot;times&amp;quot; , serif , &amp;quot;palatino linotype&amp;quot; , &amp;quot;new athena unicode&amp;quot; , &amp;quot;athena&amp;quot; , &amp;quot;gentium&amp;quot; , &amp;quot;code2000&amp;quot; ; font-size: 16.8px ; background-color: rgb(255 , 255 , 255)&quot;&gt;∞&amp;nbsp;&lt;/span&gt;и m&lt;sub&gt;i&lt;/sub&gt;.rhs :=&amp;nbsp;&lt;span style=&quot;color: rgb(32 , 33 , 34) ; font-family: &amp;quot;times&amp;quot; , serif , &amp;quot;palatino linotype&amp;quot; , &amp;quot;new athena unicode&amp;quot; , &amp;quot;athena&amp;quot; , &amp;quot;gentium&amp;quot; , &amp;quot;code2000&amp;quot; ; font-size: 16.8px ; background-color: rgb(255 , 255 , 255)&quot;&gt;∞&lt;/span&gt;&lt;br&gt;&amp;nbsp;" style="rounded=0;whiteSpace=wrap;html=1;absoluteArcSize=1;arcSize=14;strokeWidth=1;fontFamily=Times New Roman;fontSize=14;align=center;verticalAlign=bottom;" vertex="1" parent="WIyWlLk6GJQsqaUBKTNV-1">
          <mxGeometry x="140" y="200" width="200" height="70" as="geometry" />
        </mxCell>
        <mxCell id="i8caUm4KZTFX52mqfpcK-14" style="edgeStyle=orthogonalEdgeStyle;rounded=0;orthogonalLoop=1;jettySize=auto;html=1;" edge="1" parent="WIyWlLk6GJQsqaUBKTNV-1" source="i8caUm4KZTFX52mqfpcK-11">
          <mxGeometry relative="1" as="geometry">
            <mxPoint x="240" y="390" as="targetPoint" />
          </mxGeometry>
        </mxCell>
        <mxCell id="i8caUm4KZTFX52mqfpcK-11" value="s.rhs := 0" style="rounded=0;whiteSpace=wrap;html=1;align=center;" vertex="1" parent="WIyWlLk6GJQsqaUBKTNV-1">
          <mxGeometry x="140" y="300" width="200" height="60" as="geometry" />
        </mxCell>
        <mxCell id="i8caUm4KZTFX52mqfpcK-17" style="edgeStyle=orthogonalEdgeStyle;rounded=0;orthogonalLoop=1;jettySize=auto;html=1;entryX=0.5;entryY=0;entryDx=0;entryDy=0;" edge="1" parent="WIyWlLk6GJQsqaUBKTNV-1" source="i8caUm4KZTFX52mqfpcK-15" target="i8caUm4KZTFX52mqfpcK-16">
          <mxGeometry relative="1" as="geometry" />
        </mxCell>
        <mxCell id="i8caUm4KZTFX52mqfpcK-15" value="&lt;span&gt;&amp;nbsp;Используя ур. (7) вычислить key(s) и добавить в список Openlist&lt;/span&gt;" style="shape=process;whiteSpace=wrap;html=1;backgroundOutline=1;align=center;" vertex="1" parent="WIyWlLk6GJQsqaUBKTNV-1">
          <mxGeometry x="140" y="390" width="200" height="60" as="geometry" />
        </mxCell>
        <mxCell id="i8caUm4KZTFX52mqfpcK-21" style="edgeStyle=orthogonalEdgeStyle;rounded=0;orthogonalLoop=1;jettySize=auto;html=1;entryX=0.5;entryY=0;entryDx=0;entryDy=0;entryPerimeter=0;" edge="1" parent="WIyWlLk6GJQsqaUBKTNV-1" source="i8caUm4KZTFX52mqfpcK-16" target="i8caUm4KZTFX52mqfpcK-18">
          <mxGeometry relative="1" as="geometry" />
        </mxCell>
        <mxCell id="i8caUm4KZTFX52mqfpcK-16" value="Найти кратчайший путь используя шаг&amp;nbsp;2" style="shape=process;whiteSpace=wrap;html=1;backgroundOutline=1;align=center;" vertex="1" parent="WIyWlLk6GJQsqaUBKTNV-1">
          <mxGeometry x="140" y="480" width="200" height="60" as="geometry" />
        </mxCell>
        <mxCell id="i8caUm4KZTFX52mqfpcK-24" style="edgeStyle=orthogonalEdgeStyle;rounded=0;orthogonalLoop=1;jettySize=auto;html=1;" edge="1" parent="WIyWlLk6GJQsqaUBKTNV-1" source="i8caUm4KZTFX52mqfpcK-18">
          <mxGeometry relative="1" as="geometry">
            <mxPoint x="80" y="610" as="targetPoint" />
          </mxGeometry>
        </mxCell>
        <mxCell id="i8caUm4KZTFX52mqfpcK-26" style="edgeStyle=orthogonalEdgeStyle;rounded=0;orthogonalLoop=1;jettySize=auto;html=1;" edge="1" parent="WIyWlLk6GJQsqaUBKTNV-1" source="i8caUm4KZTFX52mqfpcK-18">
          <mxGeometry relative="1" as="geometry">
            <mxPoint x="240" y="680" as="targetPoint" />
          </mxGeometry>
        </mxCell>
        <mxCell id="i8caUm4KZTFX52mqfpcK-18" value="Цикл_1&lt;br&gt;Пока целевая вершина не достигнута" style="strokeWidth=1;html=1;shape=mxgraph.flowchart.loop_limit;whiteSpace=wrap;align=center;spacing=2;" vertex="1" parent="WIyWlLk6GJQsqaUBKTNV-1">
          <mxGeometry x="135" y="580" width="210" height="60" as="geometry" />
        </mxCell>
        <mxCell id="i8caUm4KZTFX52mqfpcK-33" style="edgeStyle=orthogonalEdgeStyle;rounded=0;orthogonalLoop=1;jettySize=auto;html=1;entryX=1;entryY=0.5;entryDx=0;entryDy=0;entryPerimeter=0;endArrow=classic;endFill=1;fontSize=12;" edge="1" parent="WIyWlLk6GJQsqaUBKTNV-1" source="i8caUm4KZTFX52mqfpcK-19" target="i8caUm4KZTFX52mqfpcK-18">
          <mxGeometry relative="1" as="geometry">
            <Array as="points">
              <mxPoint x="560" y="1020" />
              <mxPoint x="560" y="610" />
            </Array>
          </mxGeometry>
        </mxCell>
        <mxCell id="i8caUm4KZTFX52mqfpcK-19" value="" style="strokeWidth=1;html=1;shape=mxgraph.flowchart.loop_limit;whiteSpace=wrap;align=center;spacing=2;direction=west;" vertex="1" parent="WIyWlLk6GJQsqaUBKTNV-1">
          <mxGeometry x="135" y="1000" width="210" height="60" as="geometry" />
        </mxCell>
        <mxCell id="i8caUm4KZTFX52mqfpcK-25" value="Конец" style="html=1;dashed=0;whitespace=wrap;shape=mxgraph.dfd.start;fontSize=14;fontFamily=Times New Roman;" vertex="1" parent="WIyWlLk6GJQsqaUBKTNV-1">
          <mxGeometry x="-40" y="575" width="120" height="70" as="geometry" />
        </mxCell>
        <mxCell id="i8caUm4KZTFX52mqfpcK-28" style="edgeStyle=orthogonalEdgeStyle;rounded=0;orthogonalLoop=1;jettySize=auto;html=1;fontSize=12;" edge="1" parent="WIyWlLk6GJQsqaUBKTNV-1" source="i8caUm4KZTFX52mqfpcK-27">
          <mxGeometry relative="1" as="geometry">
            <mxPoint x="240" y="800" as="targetPoint" />
          </mxGeometry>
        </mxCell>
        <mxCell id="i8caUm4KZTFX52mqfpcK-32" style="edgeStyle=orthogonalEdgeStyle;rounded=0;orthogonalLoop=1;jettySize=auto;html=1;entryX=0;entryY=0.5;entryDx=0;entryDy=0;endArrow=classic;endFill=1;fontSize=12;" edge="1" parent="WIyWlLk6GJQsqaUBKTNV-1" source="i8caUm4KZTFX52mqfpcK-27" target="i8caUm4KZTFX52mqfpcK-31">
          <mxGeometry relative="1" as="geometry" />
        </mxCell>
        <mxCell id="i8caUm4KZTFX52mqfpcK-27" value="Вес ребра изменился" style="strokeWidth=1;html=1;shape=mxgraph.flowchart.decision;whiteSpace=wrap;align=center;fontSize=12;spacing=2;" vertex="1" parent="WIyWlLk6GJQsqaUBKTNV-1">
          <mxGeometry x="150" y="680" width="180" height="70" as="geometry" />
        </mxCell>
        <mxCell id="i8caUm4KZTFX52mqfpcK-34" style="edgeStyle=orthogonalEdgeStyle;rounded=0;orthogonalLoop=1;jettySize=auto;html=1;endArrow=none;endFill=0;fontSize=12;" edge="1" parent="WIyWlLk6GJQsqaUBKTNV-1" source="i8caUm4KZTFX52mqfpcK-31">
          <mxGeometry relative="1" as="geometry">
            <mxPoint x="560" y="715" as="targetPoint" />
          </mxGeometry>
        </mxCell>
        <mxCell id="i8caUm4KZTFX52mqfpcK-31" value="Перейти к следующему ребру" style="rounded=0;whiteSpace=wrap;html=1;align=center;" vertex="1" parent="WIyWlLk6GJQsqaUBKTNV-1">
          <mxGeometry x="380" y="685" width="120" height="60" as="geometry" />
        </mxCell>
        <mxCell id="i8caUm4KZTFX52mqfpcK-35" value="нет" style="text;html=1;strokeColor=none;fillColor=none;align=center;verticalAlign=middle;whiteSpace=wrap;rounded=0;fontSize=12;" vertex="1" parent="WIyWlLk6GJQsqaUBKTNV-1">
          <mxGeometry x="324" y="690" width="40" height="30" as="geometry" />
        </mxCell>
        <mxCell id="i8caUm4KZTFX52mqfpcK-36" value="да" style="text;html=1;strokeColor=none;fillColor=none;align=center;verticalAlign=middle;whiteSpace=wrap;rounded=0;fontSize=12;" vertex="1" parent="WIyWlLk6GJQsqaUBKTNV-1">
          <mxGeometry x="210" y="745" width="40" height="30" as="geometry" />
        </mxCell>
        <mxCell id="i8caUm4KZTFX52mqfpcK-39" style="edgeStyle=orthogonalEdgeStyle;rounded=0;orthogonalLoop=1;jettySize=auto;html=1;entryX=0.5;entryY=0;entryDx=0;entryDy=0;endArrow=classic;endFill=1;fontSize=12;" edge="1" parent="WIyWlLk6GJQsqaUBKTNV-1" source="i8caUm4KZTFX52mqfpcK-37" target="i8caUm4KZTFX52mqfpcK-38">
          <mxGeometry relative="1" as="geometry" />
        </mxCell>
        <mxCell id="i8caUm4KZTFX52mqfpcK-37" value="Обновить пути используя шаг 4" style="shape=process;whiteSpace=wrap;html=1;backgroundOutline=1;align=center;" vertex="1" parent="WIyWlLk6GJQsqaUBKTNV-1">
          <mxGeometry x="140" y="800" width="200" height="60" as="geometry" />
        </mxCell>
        <mxCell id="i8caUm4KZTFX52mqfpcK-40" style="edgeStyle=orthogonalEdgeStyle;rounded=0;orthogonalLoop=1;jettySize=auto;html=1;entryX=0.5;entryY=1;entryDx=0;entryDy=0;entryPerimeter=0;endArrow=classic;endFill=1;fontSize=12;" edge="1" parent="WIyWlLk6GJQsqaUBKTNV-1" source="i8caUm4KZTFX52mqfpcK-38" target="i8caUm4KZTFX52mqfpcK-19">
          <mxGeometry relative="1" as="geometry" />
        </mxCell>
        <mxCell id="i8caUm4KZTFX52mqfpcK-38" value="Найти кратчайший путь используя шаг&amp;nbsp;2" style="shape=process;whiteSpace=wrap;html=1;backgroundOutline=1;align=center;" vertex="1" parent="WIyWlLk6GJQsqaUBKTNV-1">
          <mxGeometry x="140" y="900" width="200" height="60" as="geometry" />
        </mxCell>
        <mxCell id="i8caUm4KZTFX52mqfpcK-41" value="Цикл_1" style="text;html=1;strokeColor=none;fillColor=none;align=center;verticalAlign=middle;whiteSpace=wrap;rounded=0;fontSize=12;" vertex="1" parent="WIyWlLk6GJQsqaUBKTNV-1">
          <mxGeometry x="220" y="1020" width="40" height="20" as="geometry" />
        </mxCell>
      </root>
    </mxGraphModel>
  </diagram>
</mxfile>
